<svg width="119" height="39" viewBox="0 0 119 39" fill="none" xmlns="http://www.w3.org/2000/svg">
<rect x="15.0078" y="38.9573" width="7.00359" height="3.00154" transform="rotate(-90 15.0078 38.9573)" fill="#1D5CBB"/>
<mask id="mask0_1_1415" style="mask-type:alpha" maskUnits="userSpaceOnUse" x="0" y="0" width="34" height="33">
<rect y="11.1178" width="12.5064" height="23.5121" transform="rotate(-26.999 0 11.1178)" fill="#C4C4C4"/>
<rect x="11.1299" y="19.3846" width="12.5064" height="23.5121" transform="rotate(-108.7 11.1299 19.3846)" fill="#C4C4C4"/>
</mask>
<g mask="url(#mask0_1_1415)">
<circle cx="16.5084" cy="16.4459" r="9.25475" stroke="#1D5CBB" stroke-width="2.50128"/>
</g>
<path d="M43.7597 28.5393V14.5595H52.7155V16.6824H46.2922V20.4777H52.1012V22.6006H46.2922V28.5393H43.7597ZM54.9135 28.5393V18.0544H57.3846V28.5393H54.9135ZM56.1559 16.5664C55.7645 16.5664 55.4278 16.4367 55.1456 16.1773C54.8635 15.9133 54.7224 15.5971 54.7224 15.2284C54.7224 14.8553 54.8635 14.539 55.1456 14.2796C55.4278 14.0157 55.7645 13.8837 56.1559 13.8837C56.5518 13.8837 56.8886 14.0157 57.1661 14.2796C57.4483 14.539 57.5894 14.8553 57.5894 15.2284C57.5894 15.5971 57.4483 15.9133 57.1661 16.1773C56.8886 16.4367 56.5518 16.5664 56.1559 16.5664ZM62.3966 22.3958V28.5393H59.9256V18.0544H62.2874V19.8361H62.4103C62.6515 19.249 63.036 18.7826 63.5639 18.4367C64.0963 18.0909 64.7539 17.9179 65.5366 17.9179C66.2602 17.9179 66.8905 18.0726 67.4275 18.3821C67.969 18.6915 68.3877 19.1398 68.6835 19.7268C68.9838 20.3139 69.1317 21.0261 69.1271 21.8634V28.5393H66.6561V22.2457C66.6561 21.5448 66.4741 20.9965 66.11 20.6006C65.7505 20.2047 65.2522 20.0067 64.6151 20.0067C64.1828 20.0067 63.7983 20.1023 63.4615 20.2934C63.1293 20.48 62.8676 20.7507 62.6765 21.1057C62.4899 21.4607 62.3966 21.8907 62.3966 22.3958ZM75.53 28.7236C74.7063 28.7236 73.9691 28.512 73.3184 28.0888C72.6676 27.6656 72.1534 27.0512 71.7757 26.2457C71.398 25.4403 71.2091 24.4619 71.2091 23.3105C71.2091 22.1455 71.4002 21.1626 71.7825 20.3617C72.1693 19.5562 72.6904 18.9487 73.3457 18.5391C74.001 18.125 74.7314 17.9179 75.5368 17.9179C76.1512 17.9179 76.6563 18.0226 77.0522 18.2319C77.4481 18.4367 77.7621 18.6847 77.9942 18.976C78.2263 19.2627 78.4061 19.5334 78.5335 19.7883H78.6359V14.5595H81.1137V28.5393H78.6837V26.8874H78.5335C78.4061 27.1422 78.2218 27.413 77.9806 27.6997C77.7394 27.9818 77.4208 28.223 77.0249 28.4233C76.629 28.6235 76.1307 28.7236 75.53 28.7236ZM76.2194 26.6963C76.7428 26.6963 77.1887 26.5552 77.5574 26.273C77.926 25.9864 78.2058 25.5882 78.397 25.0785C78.5881 24.5688 78.6837 23.9749 78.6837 23.2969C78.6837 22.6188 78.5881 22.0295 78.397 21.5289C78.2104 21.0283 77.9328 20.6393 77.5642 20.3617C77.2001 20.0841 76.7519 19.9453 76.2194 19.9453C75.6688 19.9453 75.2092 20.0886 74.8406 20.3753C74.472 20.662 74.1944 21.0579 74.0078 21.5631C73.8212 22.0682 73.7279 22.6461 73.7279 23.2969C73.7279 23.9522 73.8212 24.5369 74.0078 25.0512C74.1989 25.5609 74.4788 25.9636 74.8474 26.2594C75.2206 26.5506 75.6779 26.6963 76.2194 26.6963ZM83.8561 28.5393V14.5595H92.9485V16.6824H86.3886V20.4777H92.4775V22.6006H86.3886V26.4164H93.0031V28.5393H83.8561ZM99.3138 28.7236C98.4901 28.7236 97.7529 28.512 97.1021 28.0888C96.4514 27.6656 95.9371 27.0512 95.5594 26.2457C95.1817 25.4403 94.9929 24.4619 94.9929 23.3105C94.9929 22.1455 95.184 21.1626 95.5663 20.3617C95.9531 19.5562 96.4741 18.9487 97.1294 18.5391C97.7847 18.125 98.5151 17.9179 99.3206 17.9179C99.935 17.9179 100.44 18.0226 100.836 18.2319C101.232 18.4367 101.546 18.6847 101.778 18.976C102.01 19.2627 102.19 19.5334 102.317 19.7883H102.42V14.5595H104.898V28.5393H102.467V26.8874H102.317C102.19 27.1422 102.006 27.413 101.764 27.6997C101.523 27.9818 101.205 28.223 100.809 28.4233C100.413 28.6235 99.9145 28.7236 99.3138 28.7236ZM100.003 26.6963C100.527 26.6963 100.973 26.5552 101.341 26.273C101.71 25.9864 101.99 25.5882 102.181 25.0785C102.372 24.5688 102.467 23.9749 102.467 23.2969C102.467 22.6188 102.372 22.0295 102.181 21.5289C101.994 21.0283 101.717 20.6393 101.348 20.3617C100.984 20.0841 100.536 19.9453 100.003 19.9453C99.4526 19.9453 98.993 20.0886 98.6243 20.3753C98.2557 20.662 97.9781 21.0579 97.7916 21.5631C97.605 22.0682 97.5117 22.6461 97.5117 23.2969C97.5117 23.9522 97.605 24.5369 97.7916 25.0512C97.9827 25.5609 98.2626 25.9636 98.6312 26.2594C99.0043 26.5506 99.4617 26.6963 100.003 26.6963ZM114.213 24.1297V18.0544H116.684V28.5393H114.289V26.6758H114.179C113.943 27.2628 113.554 27.7429 113.012 28.1161C112.475 28.4892 111.813 28.6758 111.026 28.6758C110.338 28.6758 109.731 28.5234 109.203 28.2185C108.68 27.909 108.27 27.4608 107.974 26.8737C107.679 26.2821 107.531 25.5677 107.531 24.7304V18.0544H110.002V24.3481C110.002 25.0125 110.184 25.5404 110.548 25.9317C110.912 26.3231 111.39 26.5188 111.981 26.5188C112.345 26.5188 112.698 26.43 113.039 26.2526C113.381 26.0751 113.661 25.8111 113.879 25.4607C114.102 25.1058 114.213 24.6621 114.213 24.1297Z" fill="#1D5CBB"/>
</svg>
