<svg width="79" height="14" viewBox="0 0 79 14" fill="none" xmlns="http://www.w3.org/2000/svg">
<path d="M6.81045 6.10352e-05L8.33949 4.70597L13.2876 4.70597L9.28449 7.61438L10.8135 12.3203L6.81045 9.41188L2.80737 12.3203L4.33641 7.61438L0.333327 4.70597L5.28141 4.70597L6.81045 6.10352e-05Z" fill="#FECD1E"/>
<path d="M23.1553 0L24.6843 4.70591L29.6324 4.70591L25.6293 7.61432L27.1584 12.3202L23.1553 9.41181L19.1522 12.3202L20.6813 7.61432L16.6782 4.70591L21.6263 4.70591L23.1553 0Z" fill="#FECD1E"/>
<path d="M39.5003 0L41.0293 4.70591L45.9774 4.70591L41.9743 7.61432L43.5034 12.3202L39.5003 9.41181L35.4972 12.3202L37.0262 7.61432L33.0231 4.70591L37.9712 4.70591L39.5003 0Z" fill="#FECD1E"/>
<path d="M55.8451 0L57.3742 4.70591L62.3222 4.70591L58.3192 7.61432L59.8482 12.3202L55.8451 9.41181L51.842 12.3202L53.3711 7.61432L49.368 4.70591L54.3161 4.70591L55.8451 0Z" fill="#FECD1E"/>
<path d="M72.1901 0L73.7191 4.70591L78.6672 4.70591L74.6641 7.61432L76.1932 12.3202L72.1901 9.41181L68.187 12.3202L69.716 7.61432L65.713 4.70591L70.661 4.70591L72.1901 0Z" fill="#FECD1E"/>
</svg>
