<svg width="46" height="46" viewBox="0 0 46 46" fill="none" xmlns="http://www.w3.org/2000/svg">
<ellipse cx="22.6331" cy="22.6744" rx="22.6331" ry="22.6744" fill="#678CF8"/>
<path fill-rule="evenodd" clip-rule="evenodd" d="M16.3756 13.7967C17.0299 13.651 17.8044 13.6046 18.6914 13.6046H26.5714C27.4583 13.6046 28.2329 13.651 28.8872 13.7967C29.5517 13.9447 30.1464 14.2068 30.615 14.6762C31.0835 15.1457 31.3452 15.7414 31.4929 16.4072C31.6383 17.0627 31.6846 17.8386 31.6846 18.7272V22.9936C31.6846 23.8822 31.6383 24.6582 31.4929 25.3137C31.3452 25.9794 31.0835 26.5752 30.615 27.0446C30.1464 27.514 29.5517 27.7762 28.8872 27.9241C28.2329 28.0698 27.4583 28.1162 26.5714 28.1162H24.442L26.0716 30.293C26.3716 30.6937 26.2905 31.2622 25.8906 31.5627C25.4906 31.8633 24.9231 31.7821 24.6231 31.3814L22.6314 28.7209L20.6397 31.3814C20.3397 31.7821 19.7722 31.8633 19.3722 31.5627C18.9722 31.2622 18.8911 30.6937 19.1911 30.293L20.8207 28.1162H18.6914C17.8044 28.1162 17.0299 28.0698 16.3756 27.9241C15.711 27.7762 15.1164 27.514 14.6478 27.0446C14.1792 26.5752 13.9176 25.9794 13.7699 25.3137C13.6245 24.6582 13.5781 23.8822 13.5781 22.9936V18.7272C13.5781 17.8386 13.6245 17.0627 13.7699 16.4072C13.9176 15.7414 14.1792 15.1457 14.6478 14.6762C15.1164 14.2068 15.711 13.9447 16.3756 13.7967ZM23.5367 18.1395C23.5367 17.6386 23.1314 17.2325 22.6314 17.2325C22.1314 17.2325 21.7261 17.6386 21.7261 18.1395V23.5814C21.7261 24.0823 22.1314 24.4883 22.6314 24.4883C23.1314 24.4883 23.5367 24.0823 23.5367 23.5814L23.5367 18.1395ZM26.2527 18.1395C26.7527 18.1395 27.158 18.5456 27.158 19.0465L27.158 23.5814C27.158 24.0823 26.7527 24.4883 26.2527 24.4883C25.7527 24.4883 25.3474 24.0823 25.3474 23.5814V19.0465C25.3474 18.5456 25.7527 18.1395 26.2527 18.1395ZM19.9154 19.9535C19.9154 19.4525 19.5101 19.0465 19.0101 19.0465C18.5101 19.0465 18.1048 19.4525 18.1048 19.9535L18.1048 23.5814C18.1048 24.0823 18.5101 24.4883 19.0101 24.4883C19.5101 24.4883 19.9154 24.0823 19.9154 23.5814L19.9154 19.9535Z" fill="#FAFAFA"/>
</svg>
